<svg width="17" height="17" viewBox="0 0 17 17" fill="none" xmlns="http://www.w3.org/2000/svg">
<path fill-rule="evenodd" clip-rule="evenodd" d="M16.8138 8.7195C16.9327 8.60654 17 8.44971 17 8.28569C17 8.12168 16.9327 7.96485 16.8138 7.85188L8.83562 0.272644C8.59603 0.0450357 8.21729 0.0547469 7.98969 0.294334C7.76208 0.533922 7.77179 0.912658 8.01138 1.14027L14.903 7.68732L1.22159 7.68732C0.891122 7.68732 0.623228 7.95521 0.623228 8.28568C0.623228 8.61615 0.891122 8.88404 1.22159 8.88404L14.903 8.88404L8.01137 15.4311C7.77179 15.6587 7.76208 16.0375 7.98968 16.277C8.21729 16.5166 8.59603 16.5263 8.83562 16.2987L16.8138 8.7195Z" fill="#232426"/>
</svg>
