<svg width="17" height="17" viewBox="0 0 17 17" fill="none" xmlns="http://www.w3.org/2000/svg">
<path fill-rule="evenodd" clip-rule="evenodd" d="M0.18624 8.7195C0.0673273 8.60654 3.64624e-07 8.44971 3.57454e-07 8.28569C3.50285e-07 8.12168 0.0673272 7.96485 0.18624 7.85188L8.16438 0.272644C8.40397 0.0450357 8.78271 0.0547469 9.01031 0.294334C9.23792 0.533922 9.22821 0.912658 8.98862 1.14027L2.09699 7.68732L15.7784 7.68732C16.1089 7.68732 16.3768 7.95521 16.3768 8.28568C16.3768 8.61615 16.1089 8.88404 15.7784 8.88404L2.09697 8.88404L8.98863 15.4311C9.22821 15.6587 9.23792 16.0375 9.01032 16.277C8.78271 16.5166 8.40397 16.5263 8.16438 16.2987L0.18624 8.7195Z" fill="#232426"/>
</svg>
